<svg width="198" height="73" viewBox="0 0 198 73" fill="none" xmlns="http://www.w3.org/2000/svg">
<g filter="url(#filter0_d_6_56)">
<rect x="5" y="0.5" width="188" height="64" rx="11.5" stroke="#1DD100" shape-rendering="crispEdges"/>
<path d="M44.8775 29.52C44.7842 29.4267 44.6108 29.3 44.3575 29.14C44.1175 28.98 43.8175 28.8267 43.4575 28.68C43.1108 28.5333 42.7308 28.4067 42.3175 28.3C41.9042 28.18 41.4842 28.12 41.0575 28.12C40.3108 28.12 39.7442 28.26 39.3575 28.54C38.9842 28.82 38.7975 29.2133 38.7975 29.72C38.7975 30.1067 38.9175 30.4133 39.1575 30.64C39.3975 30.8667 39.7575 31.06 40.2375 31.22C40.7175 31.38 41.3175 31.5533 42.0375 31.74C42.9708 31.9667 43.7775 32.2467 44.4575 32.58C45.1508 32.9 45.6775 33.3267 46.0375 33.86C46.4108 34.38 46.5975 35.0733 46.5975 35.94C46.5975 36.7 46.4575 37.3533 46.1775 37.9C45.8975 38.4333 45.5108 38.8667 45.0175 39.2C44.5242 39.5333 43.9642 39.78 43.3375 39.94C42.7108 40.0867 42.0442 40.16 41.3375 40.16C40.6308 40.16 39.9242 40.0867 39.2175 39.94C38.5108 39.7933 37.8308 39.5867 37.1775 39.32C36.5242 39.04 35.9242 38.7067 35.3775 38.32L36.5975 35.94C36.7175 36.06 36.9308 36.22 37.2375 36.42C37.5442 36.6067 37.9175 36.8 38.3575 37C38.7975 37.1867 39.2775 37.3467 39.7975 37.48C40.3175 37.6133 40.8442 37.68 41.3775 37.68C42.1242 37.68 42.6908 37.5533 43.0775 37.3C43.4642 37.0467 43.6575 36.6867 43.6575 36.22C43.6575 35.7933 43.5042 35.46 43.1975 35.22C42.8908 34.98 42.4642 34.7733 41.9175 34.6C41.3708 34.4133 40.7242 34.2133 39.9775 34C39.0842 33.7467 38.3375 33.4667 37.7375 33.16C37.1375 32.84 36.6908 32.44 36.3975 31.96C36.1042 31.48 35.9575 30.88 35.9575 30.16C35.9575 29.1867 36.1842 28.3733 36.6375 27.72C37.1042 27.0533 37.7308 26.5533 38.5175 26.22C39.3042 25.8733 40.1775 25.7 41.1375 25.7C41.8042 25.7 42.4308 25.7733 43.0175 25.92C43.6175 26.0667 44.1775 26.26 44.6975 26.5C45.2175 26.74 45.6842 27 46.0975 27.28L44.8775 29.52ZM53.2831 40.2C52.4431 40.2 51.6831 40.06 51.0031 39.78C50.3231 39.4867 49.7431 39.0933 49.2631 38.6C48.7831 38.0933 48.4098 37.52 48.1431 36.88C47.8898 36.2267 47.7631 35.54 47.7631 34.82C47.7631 33.82 47.9831 32.9067 48.4231 32.08C48.8765 31.2533 49.5165 30.5933 50.3431 30.1C51.1831 29.5933 52.1698 29.34 53.3031 29.34C54.4498 29.34 55.4298 29.5933 56.2431 30.1C57.0565 30.5933 57.6765 31.2533 58.1031 32.08C58.5431 32.8933 58.7631 33.7733 58.7631 34.72C58.7631 34.88 58.7565 35.0467 58.7431 35.22C58.7298 35.38 58.7165 35.5133 58.7031 35.62H50.6031C50.6565 36.1533 50.8098 36.62 51.0631 37.02C51.3298 37.42 51.6631 37.7267 52.0631 37.94C52.4765 38.14 52.9165 38.24 53.3831 38.24C53.9165 38.24 54.4165 38.1133 54.8831 37.86C55.3631 37.5933 55.6898 37.2467 55.8631 36.82L58.1631 37.46C57.9098 37.9933 57.5431 38.4667 57.0631 38.88C56.5965 39.2933 56.0431 39.62 55.4031 39.86C54.7631 40.0867 54.0565 40.2 53.2831 40.2ZM50.5431 33.92H56.0231C55.9698 33.3867 55.8165 32.9267 55.5631 32.54C55.3231 32.14 55.0031 31.8333 54.6031 31.62C54.2031 31.3933 53.7565 31.28 53.2631 31.28C52.7831 31.28 52.3431 31.3933 51.9431 31.62C51.5565 31.8333 51.2365 32.14 50.9831 32.54C50.7431 32.9267 50.5965 33.3867 50.5431 33.92ZM65.2558 40.2C64.4158 40.2 63.6558 40.06 62.9758 39.78C62.2958 39.4867 61.7158 39.0933 61.2358 38.6C60.7558 38.0933 60.3824 37.52 60.1158 36.88C59.8624 36.2267 59.7358 35.54 59.7358 34.82C59.7358 33.82 59.9558 32.9067 60.3958 32.08C60.8491 31.2533 61.4891 30.5933 62.3158 30.1C63.1558 29.5933 64.1424 29.34 65.2758 29.34C66.4224 29.34 67.4024 29.5933 68.2158 30.1C69.0291 30.5933 69.6491 31.2533 70.0758 32.08C70.5158 32.8933 70.7358 33.7733 70.7358 34.72C70.7358 34.88 70.7291 35.0467 70.7158 35.22C70.7024 35.38 70.6891 35.5133 70.6758 35.62H62.5758C62.6291 36.1533 62.7824 36.62 63.0358 37.02C63.3024 37.42 63.6358 37.7267 64.0358 37.94C64.4491 38.14 64.8891 38.24 65.3558 38.24C65.8891 38.24 66.3891 38.1133 66.8558 37.86C67.3358 37.5933 67.6624 37.2467 67.8358 36.82L70.1358 37.46C69.8824 37.9933 69.5158 38.4667 69.0358 38.88C68.5691 39.2933 68.0158 39.62 67.3758 39.86C66.7358 40.0867 66.0291 40.2 65.2558 40.2ZM62.5158 33.92H67.9958C67.9424 33.3867 67.7891 32.9267 67.5358 32.54C67.2958 32.14 66.9758 31.8333 66.5758 31.62C66.1758 31.3933 65.7291 31.28 65.2358 31.28C64.7558 31.28 64.3158 31.3933 63.9158 31.62C63.5291 31.8333 63.2091 32.14 62.9558 32.54C62.7158 32.9267 62.5691 33.3867 62.5158 33.92ZM80.6681 25.8H83.4681L88.6881 40H85.8481L84.5281 36.46H79.5681L78.2681 40H75.4281L80.6681 25.8ZM84.0281 34.52L82.0681 28.66L80.0281 34.52H84.0281ZM89.907 25.4H92.587V36.64C92.587 37.12 92.667 37.4467 92.827 37.62C92.987 37.78 93.207 37.86 93.487 37.86C93.7004 37.86 93.9204 37.8333 94.147 37.78C94.3737 37.7267 94.5737 37.66 94.747 37.58L95.107 39.62C94.747 39.7933 94.327 39.9267 93.847 40.02C93.367 40.1133 92.9337 40.16 92.547 40.16C91.707 40.16 91.0537 39.94 90.587 39.5C90.1337 39.0467 89.907 38.4067 89.907 37.58V25.4ZM96.2547 25.4H98.9347V36.64C98.9347 37.12 99.0147 37.4467 99.1747 37.62C99.3347 37.78 99.5547 37.86 99.8347 37.86C100.048 37.86 100.268 37.8333 100.495 37.78C100.721 37.7267 100.921 37.66 101.095 37.58L101.455 39.62C101.095 39.7933 100.675 39.9267 100.195 40.02C99.7147 40.1133 99.2814 40.16 98.8947 40.16C98.0547 40.16 97.4014 39.94 96.9347 39.5C96.4814 39.0467 96.2547 38.4067 96.2547 37.58V25.4ZM113.2 40.1C112.16 40.1 111.213 39.9 110.36 39.5C109.52 39.1 108.793 38.56 108.18 37.88C107.58 37.1867 107.113 36.4133 106.78 35.56C106.447 34.6933 106.28 33.8067 106.28 32.9C106.28 31.9533 106.453 31.0533 106.8 30.2C107.16 29.3333 107.647 28.5667 108.26 27.9C108.887 27.22 109.62 26.6867 110.46 26.3C111.313 25.9 112.247 25.7 113.26 25.7C114.287 25.7 115.22 25.9067 116.06 26.32C116.913 26.7333 117.64 27.2867 118.24 27.98C118.84 28.6733 119.307 29.4467 119.64 30.3C119.973 31.1533 120.14 32.0333 120.14 32.94C120.14 33.8733 119.967 34.7733 119.62 35.64C119.273 36.4933 118.787 37.26 118.16 37.94C117.547 38.6067 116.813 39.1333 115.96 39.52C115.12 39.9067 114.2 40.1 113.2 40.1ZM109.08 32.9C109.08 33.5133 109.173 34.1067 109.36 34.68C109.547 35.2533 109.813 35.7667 110.16 36.22C110.52 36.66 110.953 37.0133 111.46 37.28C111.98 37.5333 112.567 37.66 113.22 37.66C113.887 37.66 114.48 37.5267 115 37.26C115.52 36.98 115.953 36.6133 116.3 36.16C116.647 35.6933 116.907 35.18 117.08 34.62C117.267 34.0467 117.36 33.4733 117.36 32.9C117.36 32.2867 117.26 31.7 117.06 31.14C116.873 30.5667 116.6 30.06 116.24 29.62C115.893 29.1667 115.46 28.8133 114.94 28.56C114.433 28.2933 113.86 28.16 113.22 28.16C112.54 28.16 111.94 28.3 111.42 28.58C110.913 28.8467 110.487 29.2067 110.14 29.66C109.793 30.1133 109.527 30.62 109.34 31.18C109.167 31.74 109.08 32.3133 109.08 32.9ZM122.637 40V32.12H121.257V30.08H122.637V29.82C122.637 29.0867 122.784 28.4267 123.077 27.84C123.371 27.2533 123.784 26.7867 124.317 26.44C124.864 26.0933 125.511 25.92 126.257 25.92C126.751 25.92 127.224 25.9867 127.677 26.12C128.131 26.24 128.597 26.4067 129.077 26.62L128.517 28.66C128.224 28.5 127.931 28.3867 127.637 28.32C127.344 28.24 127.064 28.2 126.797 28.2C126.557 28.2 126.344 28.24 126.157 28.32C125.971 28.4 125.811 28.5133 125.677 28.66C125.557 28.7933 125.464 28.9533 125.397 29.14C125.344 29.3267 125.317 29.52 125.317 29.72V30.08H127.877V32.12H125.317V40H122.637ZM127.877 40V32.12H126.497V30.08H127.877V29.44C127.877 28.5733 128.017 27.8267 128.297 27.2C128.591 26.56 128.997 26.0667 129.517 25.72C130.051 25.3733 130.671 25.2 131.377 25.2C131.804 25.2 132.231 25.2533 132.657 25.36C133.097 25.4667 133.531 25.62 133.957 25.82L133.417 27.84C133.217 27.7333 132.984 27.6467 132.717 27.58C132.451 27.5 132.197 27.46 131.957 27.46C131.504 27.46 131.157 27.62 130.917 27.94C130.677 28.26 130.557 28.7267 130.557 29.34V30.08H133.117V32.12H130.557V40H127.877ZM139.553 40.2C138.713 40.2 137.953 40.06 137.273 39.78C136.593 39.4867 136.013 39.0933 135.533 38.6C135.053 38.0933 134.679 37.52 134.413 36.88C134.159 36.2267 134.033 35.54 134.033 34.82C134.033 33.82 134.253 32.9067 134.693 32.08C135.146 31.2533 135.786 30.5933 136.613 30.1C137.453 29.5933 138.439 29.34 139.573 29.34C140.719 29.34 141.699 29.5933 142.513 30.1C143.326 30.5933 143.946 31.2533 144.373 32.08C144.813 32.8933 145.033 33.7733 145.033 34.72C145.033 34.88 145.026 35.0467 145.013 35.22C144.999 35.38 144.986 35.5133 144.973 35.62H136.873C136.926 36.1533 137.079 36.62 137.333 37.02C137.599 37.42 137.933 37.7267 138.333 37.94C138.746 38.14 139.186 38.24 139.653 38.24C140.186 38.24 140.686 38.1133 141.153 37.86C141.633 37.5933 141.959 37.2467 142.133 36.82L144.433 37.46C144.179 37.9933 143.813 38.4667 143.333 38.88C142.866 39.2933 142.313 39.62 141.673 39.86C141.033 40.0867 140.326 40.2 139.553 40.2ZM136.813 33.92H142.293C142.239 33.3867 142.086 32.9267 141.833 32.54C141.593 32.14 141.273 31.8333 140.873 31.62C140.473 31.3933 140.026 31.28 139.533 31.28C139.053 31.28 138.613 31.3933 138.213 31.62C137.826 31.8333 137.506 32.14 137.253 32.54C137.013 32.9267 136.866 33.3867 136.813 33.92ZM152.905 31.84C152.092 31.84 151.365 32 150.725 32.32C150.085 32.6267 149.625 33.0733 149.345 33.66V40H146.665V29.52H149.125V31.76C149.499 31.04 149.972 30.4733 150.545 30.06C151.119 29.6467 151.725 29.42 152.365 29.38C152.512 29.38 152.625 29.38 152.705 29.38C152.785 29.38 152.852 29.3867 152.905 29.4V31.84ZM158.26 40.2C157.366 40.2 156.513 40.0533 155.7 39.76C154.886 39.4667 154.186 39.0333 153.6 38.46L154.56 36.72C155.186 37.2267 155.8 37.6 156.4 37.84C157.013 38.08 157.6 38.2 158.16 38.2C158.68 38.2 159.093 38.1067 159.4 37.92C159.72 37.7333 159.88 37.4533 159.88 37.08C159.88 36.8267 159.793 36.6333 159.62 36.5C159.446 36.3533 159.193 36.2267 158.86 36.12C158.54 36.0133 158.146 35.8933 157.68 35.76C156.906 35.5067 156.26 35.26 155.74 35.02C155.22 34.78 154.826 34.48 154.56 34.12C154.306 33.7467 154.18 33.2733 154.18 32.7C154.18 32.0067 154.353 31.4133 154.7 30.92C155.06 30.4133 155.553 30.02 156.18 29.74C156.82 29.46 157.566 29.32 158.42 29.32C159.166 29.32 159.873 29.44 160.54 29.68C161.206 29.9067 161.813 30.28 162.36 30.8L161.28 32.5C160.746 32.0867 160.24 31.7867 159.76 31.6C159.28 31.4 158.793 31.3 158.3 31.3C158.02 31.3 157.753 31.3333 157.5 31.4C157.26 31.4667 157.06 31.58 156.9 31.74C156.753 31.8867 156.68 32.1 156.68 32.38C156.68 32.6333 156.746 32.8333 156.88 32.98C157.026 33.1133 157.24 33.2333 157.52 33.34C157.813 33.4467 158.166 33.5667 158.58 33.7C159.42 33.94 160.126 34.1867 160.7 34.44C161.286 34.6933 161.726 35.0067 162.02 35.38C162.313 35.74 162.46 36.24 162.46 36.88C162.46 37.92 162.08 38.7333 161.32 39.32C160.56 39.9067 159.54 40.2 158.26 40.2Z" fill="#1DD100"/>
</g>
<defs>
<filter id="filter0_d_6_56" x="0.5" y="0" width="197" height="73" filterUnits="userSpaceOnUse" color-interpolation-filters="sRGB">
<feFlood flood-opacity="0" result="BackgroundImageFix"/>
<feColorMatrix in="SourceAlpha" type="matrix" values="0 0 0 0 0 0 0 0 0 0 0 0 0 0 0 0 0 0 127 0" result="hardAlpha"/>
<feOffset dy="4"/>
<feGaussianBlur stdDeviation="2"/>
<feComposite in2="hardAlpha" operator="out"/>
<feColorMatrix type="matrix" values="0 0 0 0 0 0 0 0 0 0 0 0 0 0 0 0 0 0 0.25 0"/>
<feBlend mode="normal" in2="BackgroundImageFix" result="effect1_dropShadow_6_56"/>
<feBlend mode="normal" in="SourceGraphic" in2="effect1_dropShadow_6_56" result="shape"/>
</filter>
</defs>
</svg>
